<svg xmlns="http://www.w3.org/2000/svg" fill="none" viewBox="0 0 86 86" height="86" width="86">
<path fill="black" d="M31.527 42.4933L33.7089 42.2751C34.5089 42.2024 35.2362 42.566 35.7453 43.1478L38.6544 47.2206C40.4726 45.0388 42.2181 42.7842 43.9636 40.5296L41.9999 38.2023C41.4908 37.6204 41.3454 36.7477 41.6363 36.0204L42.4363 33.9113C43.6727 30.5658 43.0909 26.8566 40.909 24.0202L29.2724 9.03806C28.3269 7.80167 26.5814 7.65621 25.3451 8.67441C24.2541 9.61989 24.1814 11.3654 25.0541 12.4563L34.6543 24.8202C35.3089 25.6929 35.0907 26.9293 34.1452 27.5112C33.3452 28.0203 32.2543 27.7293 31.5997 27.0021L22.0723 14.6382C21.1268 13.4018 19.3813 13.2563 18.1449 14.2745C17.054 15.22 16.9812 16.9655 17.854 18.0564L27.4542 30.4203C28.1087 31.293 27.8906 32.5294 26.9451 33.1113C26.1451 33.6204 25.0541 33.3295 24.3996 32.6022L14.9448 20.3837C14.0721 19.2201 12.3993 18.8564 11.1629 19.7292C9.85383 20.6019 9.63565 22.4201 10.5811 23.5838L22.2904 38.5659C24.4723 41.4023 27.9633 42.8569 31.527 42.4933Z"></path>
<path fill="black" d="M53.8545 52.1665C52.1817 54.4938 50.218 57.403 48.1089 60.3848L58.9455 75.5124C60.1091 77.1852 62.4364 77.4761 64.0365 76.2397L67.3093 73.6942C68.9093 72.4578 69.1275 70.1305 67.8184 68.6032L53.8545 52.1665Z"></path>
<path fill="black" d="M74.6552 11.5108C74.0007 9.83799 71.7461 9.47435 70.6551 10.9289L49.0547 39.0749C42.3637 47.8024 36.3272 55.0753 29.0543 63.2936L24.9088 68.3846C23.5996 69.9846 23.8906 72.3847 25.5633 73.6938L28.8361 76.1666C30.5816 77.4757 32.9817 77.0393 34.218 75.2938C38.8727 68.3119 49.8547 52.1661 54.1457 46.4205L59.2367 49.7661C61.2731 50.9297 63.8186 50.2752 65.055 48.3115C67.5278 44.2387 72.037 35.8749 75.3098 29.4747C78.3644 23.5837 76.328 15.9472 74.6552 11.5108Z"></path>
</svg>
