<svg xmlns="http://www.w3.org/2000/svg" fill="none" viewBox="0 0 158 158" height="158" width="158">
<path fill="black" d="M92.0423 61.7262C90.3093 61.6277 88.5763 61.5538 86.8433 61.4946L85.0609 57.0399C84.0586 54.5366 87.4802 52.9942 88.7096 55.3448L92.0423 61.7262ZM71.1524 61.4946C69.4194 61.5538 67.6864 61.6277 65.9534 61.7262L69.2861 55.3448C70.5105 52.9992 73.9371 54.5366 72.9348 57.0399L71.1524 61.4946ZM106.775 128.936L106.77 122.214C106.77 114.552 115.776 106.598 121.948 103.262C127.942 107.18 135.999 105.529 140.014 99.6354C143.43 100.449 146.467 102.666 148.061 105.82C148.318 106.332 148.975 107.889 148.999 108.481C149.029 109.116 147.74 111.403 147.355 111.965C140.315 122.269 118.265 127.191 106.775 128.936ZM17.992 99.6059C21.9962 105.524 30.0688 107.19 36.0775 103.262C42.2492 106.598 51.2549 114.552 51.2549 122.214L51.25 128.926C39.7262 127.172 18.5944 122.407 11.1439 112.536C10.5564 111.758 8.95174 109.092 9.00111 108.136C9.03074 107.515 9.64297 106.051 9.91452 105.514C11.5093 102.405 14.6099 100.345 17.992 99.6059ZM40.6001 91.3815C40.6001 97.7383 35.4159 102.912 29.0467 102.912C22.6776 102.912 17.4933 97.7383 17.4933 91.3815C17.4933 85.0247 22.6776 79.8505 29.0467 79.8505C35.4159 79.8505 40.6001 85.0247 40.6001 91.3815ZM67.2025 93.7271C67.2025 87.1978 72.525 81.8906 79.062 81.8906C85.604 81.8906 90.9215 87.2027 90.9215 93.7271C90.9215 100.256 85.5991 105.564 79.062 105.564C72.525 105.564 67.2025 100.256 67.2025 93.7271ZM52.9583 129.182L52.9533 119.632C52.9533 111.166 64.4425 106.815 71.261 105.618C75.912 108.939 82.2219 108.939 86.8729 105.618C93.6914 106.815 105.181 111.171 105.181 119.632L105.171 129.177C87.9887 131.607 70.1402 131.607 52.9583 129.182ZM42.4467 82.7727C42.4467 76.7559 47.3495 71.8626 53.378 71.8626C59.4065 71.8626 64.3092 76.7559 64.3092 82.7727C64.3092 88.7895 59.4065 93.6827 53.378 93.6827C47.3445 93.6827 42.4467 88.7895 42.4467 82.7727ZM42.5504 92.1798L44.0513 91.6623C48.643 96.7231 56.4342 97.3342 61.7468 93.0273C62.9663 93.5645 64.1414 94.1854 65.277 94.8802C65.5633 98.3197 67.168 101.572 69.7107 103.903C63.0157 105.283 54.163 109.008 51.6301 115.946C48.8257 110.112 43.1725 104.997 37.5883 101.848C40.5063 99.4728 42.3282 95.9298 42.5504 92.1798ZM92.8619 94.7915C93.9481 94.1312 95.0788 93.5398 96.2489 93.0273C101.566 97.3342 109.358 96.7231 113.944 91.6623L115.47 92.1896C115.672 95.9396 117.479 99.4925 120.383 101.878C114.848 105.007 109.269 110.058 106.449 115.823C103.847 108.964 95.0788 105.283 88.4134 103.908C90.9857 101.552 92.5953 98.2606 92.8619 94.7915ZM115.549 82.7727C115.549 88.7895 110.646 93.6827 104.618 93.6827C98.5892 93.6827 93.6864 88.7895 93.6864 82.7727C93.6864 76.7559 98.5892 71.8626 104.618 71.8626C110.646 71.8626 115.549 76.7559 115.549 82.7727ZM117.425 91.4455C117.425 85.0887 122.609 79.9146 128.979 79.9146C135.348 79.9146 140.532 85.0887 140.532 91.4455C140.532 97.8023 135.348 102.976 128.979 102.976C122.604 102.976 117.425 97.8073 117.425 91.4455ZM69.1824 35.7964C69.1824 30.3956 73.5816 26 78.9978 26C84.4141 26 88.8133 30.3956 88.8133 35.7964C88.8133 41.2021 84.4092 45.5928 78.9978 45.5928C73.5816 45.5977 69.1824 41.2021 69.1824 35.7964ZM42.3973 71.3945V64.742C47.3198 63.6579 52.3115 62.8498 57.3229 62.2929C57.3278 60.4746 57.2933 58.6415 57.3328 56.8231C57.476 50.1756 67.1482 46.5734 72.4707 45.6371C76.307 48.3819 81.5554 48.3819 85.3917 45.6371C91.3214 46.6818 100.544 51.1118 100.544 58.2226L100.554 62.3077C105.6 62.8941 110.631 63.6825 115.588 64.7765V71.4241C93.1976 67.2601 64.7783 67.2601 42.3973 71.3945Z" clip-rule="evenodd" fill-rule="evenodd"></path>
</svg>
