<svg xmlns="http://www.w3.org/2000/svg" fill="none" viewBox="0 0 76 80" height="80" width="76">
<path fill="black" d="M18.3998 41.5H12.7998V60.4H18.3998V41.5Z"></path>
<path fill="black" d="M21.4004 80H54.0004V41.5H21.4004V80ZM27.3004 51H48.0004C48.8004 51 49.5004 51.7 49.5004 52.5C49.5004 53.3 48.8004 54 48.0004 54H27.3004C26.5004 54 25.8004 53.3 25.8004 52.5C25.7004 51.6 26.4004 51 27.3004 51ZM27.3004 60.7H48.0004C48.8004 60.7 49.5004 61.4 49.5004 62.2C49.5004 63 48.8004 63.7 48.0004 63.7H27.3004C26.5004 63.7 25.8004 63 25.8004 62.2C25.7004 61.4 26.4004 60.7 27.3004 60.7ZM27.3004 70.5H48.0004C48.8004 70.5 49.5004 71.2 49.5004 72C49.5004 72.8 48.8004 73.5 48.0004 73.5H27.3004C26.5004 73.5 25.8004 72.8 25.8004 72C25.7004 71.2 26.4004 70.5 27.3004 70.5Z"></path>
<path fill="black" d="M62.6 41.5H57V60.4H62.6V41.5Z"></path>
<path fill="black" d="M54.0004 0H21.4004V16.6H54.0004V0Z"></path>
<path fill="black" d="M70.6 19.6001H4.8C2.1 19.6001 0 21.8001 0 24.4001V55.6001C0 58.3001 2.2 60.4001 4.8 60.4001H9.8V40.0001C9.8 39.2001 10.5 38.5001 11.3 38.5001H64.1C64.9 38.5001 65.6 39.2001 65.6 40.0001V60.4001H70.6C73.3 60.4001 75.4 58.2001 75.4 55.6001V24.4001C75.4 21.7001 73.2 19.6001 70.6 19.6001Z"></path>
</svg>
