<svg xmlns="http://www.w3.org/2000/svg" fill="none" viewBox="0 0 78 78" height="78" width="78">
<path fill="black" d="M39.0069 39.2935C45.126 39.2935 50.0866 34.1822 50.0866 27.877C50.0866 21.5718 45.126 16.4604 39.0069 16.4604C32.8878 16.4604 27.9272 21.5718 27.9272 27.877C27.9272 34.1822 32.8878 39.2935 39.0069 39.2935Z"></path>
<path fill="black" d="M47.0048 38.1601C44.9503 40.2771 41.5016 41.0331 39.0069 41.0331C36.4387 41.0331 32.9901 40.2771 30.9356 38.0845C23.8182 40.8819 18.4618 49.8034 17.0677 57.6665C16.6274 60.0103 18.2417 61.9761 20.5163 62.7321C24.9922 64.1686 32.1096 65.0003 39.0069 65.0003C48.1054 65.0003 53.9021 64.093 57.9377 62.6565C59.8454 61.9761 61.2396 60.3127 60.9461 58.2713C59.6253 50.1815 54.2689 41.0331 47.0048 38.1601Z"></path>
<path fill="black" d="M30.4221 36.8744C28.8078 35.2866 27.6338 33.1697 27.0468 30.8259C25.7995 31.2795 24.5521 31.4307 23.4515 31.4307C21.3969 31.4307 18.6821 30.8259 17.0678 29.0869C11.4913 31.2795 7.23553 38.3865 6.06152 44.5862C5.69465 46.4764 7.0154 47.9885 8.77641 48.5933C11.1978 49.3494 14.4997 49.8786 18.0951 50.1811C20.6632 44.5106 24.9923 39.0669 30.4221 36.8744Z"></path>
<path fill="black" d="M23.3781 30.0699C24.5521 30.0699 25.7261 29.8431 26.7534 29.3894C26.68 28.8602 26.68 28.331 26.68 27.8017C26.68 23.719 28.5878 20.0143 31.5228 17.6705C30.202 14.3438 27.0469 12 23.3781 12C18.5354 12 14.6465 16.0071 14.6465 20.9971C14.6465 25.9872 18.5354 30.0699 23.3781 30.0699Z"></path>
<path fill="black" d="M71.9529 45.1155C70.9256 38.689 66.6698 31.5064 60.9466 29.1626C59.3323 30.8259 56.6174 31.4308 54.5629 31.4308C53.4623 31.4308 52.1416 31.2796 50.9675 30.8259C50.3805 33.1697 49.2065 35.2111 47.5923 36.8744C53.0221 39.1426 57.3512 44.5107 59.9193 50.2568C64.1751 49.9543 67.2568 49.4251 69.6049 48.5178C71.1457 48.0642 72.2464 46.7789 71.9529 45.1155Z"></path>
<path fill="black" d="M51.334 27.8018C51.334 28.331 51.334 28.8603 51.2606 29.3895C52.2879 29.8432 53.4619 30.07 54.6359 30.07C59.4786 30.07 63.3675 26.0628 63.3675 21.0728C63.3675 16.0828 59.4786 12.0757 54.6359 12.0757C50.9671 12.0757 47.812 14.4195 46.4912 17.7462C49.4262 20.0143 51.334 23.6434 51.334 27.8018Z"></path>
</svg>
